HIERARCHY
ROOT Hips
{
	OFFSET -14.64140 90.27770 -84.91600
	CHANNELS 6 Xposition Yposition Zposition Zrotation Xrotation Yrotation
	JOINT Spine
	{
		OFFSET 0.00000 13.20850 -1.60436
		CHANNELS 3 Zrotation Xrotation Yrotation
		JOINT Spine1
		{
			OFFSET 0.00000 8.61716 0.00000
			CHANNELS 3 Zrotation Xrotation Yrotation
			JOINT Spine2
			{
				OFFSET 0.00000 8.61717 0.00000
				CHANNELS 3 Zrotation Xrotation Yrotation
				JOINT Spine3
				{
					OFFSET 0.00000 8.61717 0.00000
					CHANNELS 3 Zrotation Xrotation Yrotation
					JOINT Neck
					{
						OFFSET 0.00000 11.07920 1.10792
						CHANNELS 3 Zrotation Xrotation Yrotation
						JOINT Neck1
						{
							OFFSET 0.00000 7.08032 0.00000
							CHANNELS 3 Zrotation Xrotation Yrotation
							JOINT Head
							{
								OFFSET 0.00000 7.08031 0.00000
								CHANNELS 3 Zrotation Xrotation Yrotation
								End site
								{
									OFFSET 0.00000 0.00000 0.00000
								}
							}
						}
					}
					JOINT RightShoulder
					{
						OFFSET -0.01000 7.91373 5.19711
						CHANNELS 3 Zrotation Xrotation Yrotation
						JOINT RightArm
						{
							OFFSET -18.41580 0.00000 0.00000
							CHANNELS 3 Zrotation Xrotation Yrotation
							JOINT RightForeArm
							{
								OFFSET -29.11090 0.00000 0.00000
								CHANNELS 3 Zrotation Xrotation Yrotation
								JOINT RightHand
								{
									OFFSET -24.65040 0.00000 0.00000
									CHANNELS 3 Zrotation Xrotation Yrotation
									JOINT RightHandThumb1
									{
										OFFSET -5.35114 -0.85590 3.97906
										CHANNELS 3 Zrotation Xrotation Yrotation
										JOINT RightHandThumb2
										{
											OFFSET -4.52789 0.00000 0.00000
											CHANNELS 3 Zrotation Xrotation Yrotation
											JOINT RightHandThumb3
											{
												OFFSET -2.46976 0.00000 0.00000
												CHANNELS 3 Zrotation Xrotation Yrotation
												End site
												{
													OFFSET 0.00000 0.00000 0.00000
												}
											}
										}
									}
									JOINT RightHandIndex1
									{
										OFFSET -14.26970 0.00000 2.88139
										CHANNELS 3 Zrotation Xrotation Yrotation
										JOINT RightHandIndex2
										{
											OFFSET -5.48836 0.00000 0.00000
											CHANNELS 3 Zrotation Xrotation Yrotation
											JOINT RightHandIndex3
											{
												OFFSET -3.01859 0.00000 0.00000
												CHANNELS 3 Zrotation Xrotation Yrotation
												End site
												{
													OFFSET 0.00000 0.00000 0.00000
												}
											}
										}
									}
									JOINT RightHandMiddle1
									{
										OFFSET -14.26970 0.00000 -0.09147
										CHANNELS 3 Zrotation Xrotation Yrotation
										JOINT RightHandMiddle2
										{
											OFFSET -6.17441 0.00000 0.00000
											CHANNELS 3 Zrotation Xrotation Yrotation
											JOINT RightHandMiddle3
											{
												OFFSET -3.56743 0.00000 0.00000
												CHANNELS 3 Zrotation Xrotation Yrotation
												End site
												{
													OFFSET 0.00000 0.00000 0.00000
												}
											}
										}
									}
									JOINT RightHandRing1
									{
										OFFSET -12.69180 0.00000 -3.06433
										CHANNELS 3 Zrotation Xrotation Yrotation
										JOINT RightHandRing2
										{
											OFFSET -5.62556 0.00000 0.00000
											CHANNELS 3 Zrotation Xrotation Yrotation
											JOINT RightHandRing3
											{
												OFFSET -3.56744 0.00000 0.00000
												CHANNELS 3 Zrotation Xrotation Yrotation
												End site
												{
													OFFSET 0.00000 0.00000 0.00000
												}
											}
										}
									}
									JOINT RightHandPinky1
									{
										OFFSET -11.11390 0.00000 -6.03719
										CHANNELS 3 Zrotation Xrotation Yrotation
										JOINT RightHandPinky2
										{
											OFFSET -4.52789 0.00000 0.00000
											CHANNELS 3 Zrotation Xrotation Yrotation
											JOINT RightHandPinky3
											{
												OFFSET -2.46976 0.00000 0.00000
												CHANNELS 3 Zrotation Xrotation Yrotation
												End site
												{
													OFFSET 0.00000 0.00000 0.00000
												}
											}
										}
									}
								}
							}
						}
					}
					JOINT LeftShoulder
					{
						OFFSET 0.01000 7.91373 5.19711
						CHANNELS 3 Zrotation Xrotation Yrotation
						JOINT LeftArm
						{
							OFFSET 18.41580 0.00000 0.00000
							CHANNELS 3 Zrotation Xrotation Yrotation
							JOINT LeftForeArm
							{
								OFFSET 29.11090 0.00000 0.00000
								CHANNELS 3 Zrotation Xrotation Yrotation
								JOINT LeftHand
								{
									OFFSET 24.65040 0.00000 0.00000
									CHANNELS 3 Zrotation Xrotation Yrotation
									JOINT LeftHandThumb1
									{
										OFFSET 5.35114 -0.85590 3.97906
										CHANNELS 3 Zrotation Xrotation Yrotation
										JOINT LeftHandThumb2
										{
											OFFSET 4.52789 0.00000 0.00000
											CHANNELS 3 Zrotation Xrotation Yrotation
											JOINT LeftHandThumb3
											{
												OFFSET 2.46977 0.00000 0.00000
												CHANNELS 3 Zrotation Xrotation Yrotation
												End site
												{
													OFFSET 0.00000 0.00000 0.00000
												}
											}
										}
									}
									JOINT LeftHandIndex1
									{
										OFFSET 14.26970 0.00000 2.88139
										CHANNELS 3 Zrotation Xrotation Yrotation
										JOINT LeftHandIndex2
										{
											OFFSET 5.48836 0.00000 0.00000
											CHANNELS 3 Zrotation Xrotation Yrotation
											JOINT LeftHandIndex3
											{
												OFFSET 3.01859 0.00000 0.00000
												CHANNELS 3 Zrotation Xrotation Yrotation
												End site
												{
													OFFSET 0.00000 0.00000 0.00000
												}
											}
										}
									}
									JOINT LeftHandMiddle1
									{
										OFFSET 14.26970 0.00000 -0.09147
										CHANNELS 3 Zrotation Xrotation Yrotation
										JOINT LeftHandMiddle2
										{
											OFFSET 6.17440 0.00000 0.00000
											CHANNELS 3 Zrotation Xrotation Yrotation
											JOINT LeftHandMiddle3
											{
												OFFSET 3.56744 0.00000 0.00000
												CHANNELS 3 Zrotation Xrotation Yrotation
												End site
												{
													OFFSET 0.00000 0.00000 0.00000
												}
											}
										}
									}
									JOINT LeftHandRing1
									{
										OFFSET 12.69180 0.00000 -3.06433
										CHANNELS 3 Zrotation Xrotation Yrotation
										JOINT LeftHandRing2
										{
											OFFSET 5.62556 0.00000 0.00000
											CHANNELS 3 Zrotation Xrotation Yrotation
											JOINT LeftHandRing3
											{
												OFFSET 3.56744 0.00000 0.00000
												CHANNELS 3 Zrotation Xrotation Yrotation
												End site
												{
													OFFSET 0.00000 0.00000 0.00000
												}
											}
										}
									}
									JOINT LeftHandPinky1
									{
										OFFSET 11.11390 0.00000 -6.03719
										CHANNELS 3 Zrotation Xrotation Yrotation
										JOINT LeftHandPinky2
										{
											OFFSET 4.52789 0.00000 0.00000
											CHANNELS 3 Zrotation Xrotation Yrotation
											JOINT LeftHandPinky3
											{
												OFFSET 2.46976 0.00000 0.00000
												CHANNELS 3 Zrotation Xrotation Yrotation
												End site
												{
													OFFSET 0.00000 0.00000 0.00000
												}
											}
										}
									}
								}
							}
						}
					}
					JOINT pCube4
					{
						OFFSET 0.00000 10.91090 1.10792
						CHANNELS 3 Zrotation Xrotation Yrotation
						End site
						{
							OFFSET 0.00000 0.00000 0.00000
						}
					}
				}
			}
		}
	}
	JOINT RightUpLeg
	{
		OFFSET -9.98441 0.00000 0.00000
		CHANNELS 3 Zrotation Xrotation Yrotation
		JOINT RightLeg
		{
			OFFSET 0.00000 -42.11790 0.00000
			CHANNELS 3 Zrotation Xrotation Yrotation
			JOINT RightFoot
			{
				OFFSET 0.00000 -45.00020 -0.00001
				CHANNELS 3 Zrotation Xrotation Yrotation
				JOINT RightForeFoot
				{
					OFFSET 0.00000 -3.74820 0.00000
					CHANNELS 3 Zrotation Xrotation Yrotation
					JOINT RightToeBase
					{
						OFFSET 0.00000 0.06325 14.43120
						CHANNELS 3 Zrotation Xrotation Yrotation
						End site
						{
							OFFSET 0.00000 0.00000 0.00000
						}
					}
				}
			}
		}
	}
	JOINT LeftUpLeg
	{
		OFFSET 9.98441 0.00000 0.00000
		CHANNELS 3 Zrotation Xrotation Yrotation
		JOINT LeftLeg
		{
			OFFSET 0.00000 -42.11800 0.00000
			CHANNELS 3 Zrotation Xrotation Yrotation
			JOINT LeftFoot
			{
				OFFSET 0.00000 -45.00070 0.00000
				CHANNELS 3 Zrotation Xrotation Yrotation
				JOINT LeftForeFoot
				{
					OFFSET 0.00000 -3.74824 0.00000
					CHANNELS 3 Zrotation Xrotation Yrotation
					JOINT LeftToeBase
					{
						OFFSET 0.00000 0.06325 14.43110
						CHANNELS 3 Zrotation Xrotation Yrotation
						End site
						{
							OFFSET 0.00000 0.00000 0.00000
						}
					}
				}
			}
		}
	}
}
MOTION
Frames: 4
Frame Time: 0.050000
-0.023872658200130195 0.027502181775900882 0.049910140392413115 0.000538380576889806 -0.0018811572983688015 0.033291753917149385 3.4814033859780262 4.483088980092254 -1.8413662899556342 -0.8131698121520837 3.48785918102276 0.361473408707179 -0.6859313739105676 -1.1742776366056216 -0.4105022067265536 -0.4047089056265469 -0.43506717682495943 -0.5289707294816374 -0.43314401517088147 12.557776611185762 -1.0780311120178496 0.33950397210533767 -0.41477278329345385 -2.466483983629628 0.7326066853027886 -16.50780910344962 -0.24243981376993037 -9.183415317418522 3.3195086490458636 -16.797286933815013 72.99991603542199 -6.561361003339385 1.6323441076214893 1.349832047968593 0.5257553374575455 67.07946187273299 16.267011138767277 -0.39819454576340463 -1.981009180996523 4.537233758680461 -0.1333639645602186 -1.6106002955580137 -0.03797521549273584 0.0053026790652516125 -56.196127062530245 0.010264883353194518 -0.01925838782312405 -56.230804894537016 -38.75036048116482 -0.002458115676592659 -0.019156430472087847 -0.02965737991543735 -0.024512787976792683 0.018084373540841876 -0.023730443374355207 -0.006114139119513427 0.036977195121744584 -36.69316895944619 0.01121735908647181 0.014835361765912596 0.019784001464675807 0.014070962007692749 -0.008935172274128144 0.03572644639875418 0.04923043427142775 0.033986681954015024 -19.792912583127194 -0.02328765378976514 -0.014117684862360888 0.03394828005147435 -0.03749014978430451 -0.03273065023282905 0.03748777923092837 0.03073755531846275 0.013893423600027212 24.09976331160137 -0.010158846268413738 -0.03672315529723892 28.852018433308082 -0.04574196477318847 0.014270785470136542 28.87931810606519 -0.03915262445688725 0.0384406506025387 11.497874519031829 2.7660101341374075 14.722133337921854 -62.912245760061076 2.047423723711199 -23.39148169401836 -12.96832293038313 -4.312745878128361 -85.43885907384038 -12.156214306614123 -3.216271202118696 -0.9344843444763721 -0.47666489699055825 0.05370955854780919 -8.122356942128112 -0.04490146523295242 -0.009870884985771631 44.55797499229643 -0.02789228378331329 0.00033975263255399234 44.60902261394703 12.445920979376474 -0.004355677752143321 -0.007004691688389493 0.049407210095729896 0.01954343946020661 -0.03578270095081123 0.01682663023359962 -0.012074413863020245 0.0034380848847818377 11.139121938930245 -0.047958210097097574 0.016802069133359666 0.006329686375821223 -0.00453094431077156 0.029160803494770786 0.049575770176031125 0.02378332566333494 0.019615530782858416 4.770448165398991 -0.003636774302892113 0.0004057670161904718 0.04898683721498113 0.006629207381811868 -0.012012069925184622 -0.010943407356781433 0.02568542910404026 0.023809585531190523 -5.615233198953968 -0.015072233757193463 0.01187566569407888 -6.7245582205972605 -0.0003912647808675385 0.047277631528860414 -6.719427504846992 -0.0471682812400721 0.011191869684123522 0.006818675402562071 -0.011974210261005676 0.009271620472895536 8.076661741265838 3.5126665083244957 -19.20439345243874 -0.014573767832450804 10.41960483848361 -0.00969316128316208 -5.6012558504765355 -15.680444616132378 3.175468602196799 0.01487345122748378 0.0005661697395393038 0.009054505730401992 0.00880344083814656 4.692829728439201 0.035082644456022195 12.467840132508803 -8.196224843921362 6.868897256814411 -0.0070032947961342715 46.378818280059825 0.037170072899948635 -4.367158810752815 -14.753780632182893 -3.818342520977095 -0.0055359699231639255 -0.043265364385269865 -0.01576552344459604 -0.012641372275268984 -10.746512106842417 -0.03806775753397629 
0.02607276306797525 -0.013754278263836909 0.009607116826306005 0.008690279080183709 0.018319929773441535 0.044697053323586824 3.544748911660533 4.473644142082654 -1.84115537349258 -0.7937530583746129 3.512834282836539 0.4133021213322867 -0.6140032352635548 -1.218037419067945 -0.50171172164422 -0.4345781960975578 -0.4184536782599448 -0.5324863203299102 -0.519507311830266 12.669113877878639 -0.9846290370153037 0.3252480913219188 -0.37166169924472997 -2.0616736849396906 0.6420419292074758 -16.6175806714227 -0.17610305822719613 -9.391153869330271 3.3454689602629424 -16.89727192734046 73.21886634858762 -6.631004319099279 1.0861444683289643 1.3194469226210628 -0.2791600601806913 67.62851065208987 16.034043988595954 -0.3757034447261297 -1.9510624147071045 4.480517289766881 -0.13426316384125433 -1.5918997436505988 0.01587697767794368 -0.03242949151526351 -56.21730739258629 -0.02558314662574083 -0.0006523634947267985 -56.19419146447154 -38.77137676522546 0.020845396787283418 -0.003361648890348534 0.00404542219651374 0.04286652000228304 -0.016627837523639118 0.013913685613507518 0.038216368849732084 0.046954776793026655 -36.69305174732267 -0.03332953003049927 -0.03653136832492765 0.03420440362763028 -0.004726902208942672 -0.0018736074746078136 0.020224240696470892 0.013966507514192044 0.03665561319921883 -19.738484388084313 -0.033067878113202984 0.024403980281406272 0.012552650834287256 0.04327555061883136 0.0244797250728122 0.02695458488934237 0.007942365640977668 -0.026384671342827754 24.036292150104902 0.016844234515980598 0.036225443984574335 28.85755121617947 0.034070195286393476 0.03541328890350283 28.878331345984467 -0.029289097034796683 -0.046128477222136546 11.899614903320197 2.828521370645678 14.753329877251057 -62.43794017314438 1.6178189170305115 -24.20295776455146 -12.62019871435632 -5.111072770586523 -86.37511095906801 -12.006057124296959 -3.3590084125593456 -0.9546985515888369 -0.4945548590097965 0.0745851074926681 -8.14083949342396 0.0013098104369666285 0.016226405438329226 44.56036874283046 0.044365049280931566 0.01331153704632473 44.5498073404545 12.502097078268854 -0.048056197962103565 0.024490892000616084 0.029142229749660787 0.03631474742888136 0.00435549113980719 -0.04975096895636487 0.020155433581498926 0.026573305383620273 11.116956658712157 0.0006079003224360413 0.020399044474476213 -0.019506619243976068 0.006013586913255655 0.032599193577288195 0.004171549066625781 0.009599955424081567 -0.02364594330396323 4.737725218682198 -0.010682576321778808 0.032419952718476475 -0.011888126551121439 -0.027338198695020934 0.03790671944008454 0.002689069559256178 -0.0014752398695474678 -0.04216298960640101 -5.595224597967892 -0.009235118642805898 -0.02625705564850834 -6.696243760128946 -0.04419692715759666 -0.0376299210804087 -6.719887593745557 0.02367919021961314 -0.04154782472241296 0.016642349321376277 0.0003146594741481012 -0.0160596959306187 8.048835116762525 3.459320532261394 -19.188930590947596 0.030825791421846025 10.423089729476068 0.06022016510383264 -5.623161184557717 -15.678950519815153 3.2354442564213977 0.021263201910945936 -0.011792279945933041 -0.029429950679121623 0.021760605538813895 4.680205562778536 -0.04887950611324871 12.453035882080838 -8.239288484300324 6.849314180201222 0.028538845680622066 46.42180885766569 0.01070337898450526 -4.280632558230086 -14.699862384020523 -3.84950983422136 0.012426371206970887 0.007418097129209521 0.047264664007351756 -0.0007458283847911828 -10.741461796387686 0.015401146821843126 
-0.04028806224506964 -0.03879003536464884 -0.046972109609547945 -0.03145049275402214 -0.02519737810562806 -0.04311599591153382 3.5091786448711146 4.433199833313585 -1.8399767439171872 -0.8503848725159004 3.512821878136127 0.35396608397468765 -0.6464904052413486 -1.2359825050538655 -0.6826602828980405 -0.39970210506484505 -0.422428332877658 -0.5216535491073256 -0.5231001348837162 12.583512686096322 -0.9125906304401928 0.27399815229238356 -0.47577938517283436 -1.8035891532131463 0.6291560767214762 -16.726015407071444 -0.20798578801844822 -9.460516741341099 3.3895679876623213 -17.041722215688438 73.59057855868099 -6.518338165639929 0.10687135320204492 1.0248210745931967 -0.9391296992220018 68.00756629707296 16.462928523675924 -0.38422004438741947 -1.970100989097509 4.551405200798358 -0.08005899113500467 -1.5929890625895549 0.020948779137137337 0.028293465143521976 -56.22927245763821 -0.02853836405837044 -0.030377696997429156 -56.24905637304207 -38.77666994097043 -0.012287816792645885 -0.0010852853236478868 0.039006754686071655 0.044163671125614916 -0.04470815683988638 0.01292567088809658 -0.03957675790515524 -0.04419873730791349 -36.71187056061421 0.015367024433331548 -0.0322414930968458 0.04410300118435851 -0.020869964422234363 0.04755989783722726 -0.02066690105139172 0.005950892816272758 0.02905271740963354 -19.758773769838594 0.022533454958969072 0.015487954200843888 0.03934171265791933 0.004488633725361058 0.04692769368133266 -0.040966796373118966 0.0388152704303247 -0.02382589688513709 24.094549732252982 0.00071880228546278 0.014558146321383757 28.868728038199684 0.011310824288209554 -0.046795511665436426 28.848721164310813 0.020197662699308585 -0.03246760786296886 12.18446864815025 2.847468822509392 14.81623112784869 -62.00899798364947 1.2271916324205403 -24.706914025839858 -12.821493255383468 -5.72504311000919 -87.31416134530203 -12.053050132349465 -3.569053192614064 -0.9142320760190744 -0.49297755030319507 0.06696792768111394 -8.14833397472036 -0.040694060630378504 0.02333512853623616 44.613405725354504 0.049454941361818015 -0.010480589227557735 44.549893727449096 12.497843693433747 -0.028096684919451713 -0.04905644540591192 0.028410744174859844 -0.03493293266618637 0.018664136862659293 -0.0015105142811069527 -0.020859038991101548 -0.021149326660772273 11.12487106385698 -0.025573417686877358 -0.0048283503206938095 -0.028490425316994753 -0.021288354841763203 0.024069049029861005 0.013189288005932987 -0.024005234697636716 0.012778832175183498 4.779405009184401 0.0032387135244867364 0.04757370612958815 -0.02255674287015774 -0.02700993503339698 -0.012977772811272157 0.039686520635166964 0.03326665722537268 -0.005071169262500057 -5.6284863105879275 0.031073435086578213 -0.03660907067930413 -6.687192245163116 0.028155114246655837 -0.025980171342099616 -6.7706377903263935 0.04554527049825439 -0.029028185176517823 -0.030756343980060382 0.012023816302960457 0.04712672301932196 7.999088885839326 3.5365332630495834 -19.214498497817818 0.027297558884041853 10.386602824962267 0.0362351356040931 -5.624406842337886 -15.61648089569684 3.1709894334598023 0.020671333297954318 -0.01574465167804156 -0.01662630056746586 -0.032588738300392106 4.663029827648453 -0.0032998484057103353 12.462585910576225 -8.22037749952203 6.87946108150206 0.027703870893649264 46.359133307105274 -0.004841748933892437 -4.3737465293368825 -14.721724478176636 -3.84929686112639 0.004269824057880714 -0.008329625009019202 0.002396049521648188 -0.03014064606468039 -10.732091983482059 0.03153626944032122 
0.003338648571955533 0.00023476546162395042 0.03297698379944654 0.02554062060528516 0.001332060483503273 0.04176582990939809 3.3183921642531624 4.551098037272484 -1.8327439941039894 -0.821687684848391 3.412166343617289 0.3520555643216693 -0.6559413934454426 -1.151210377855452 -0.8096130511737829 -0.47536021347694873 -0.429667053828475 -0.6131380388599161 -0.5174371661305793 12.482977160714686 -0.9106621445120079 0.3683558263588404 -0.4999912046698187 -1.8300465376323019 0.6588385298770885 -16.727050600859766 -0.19383277930003046 -9.081956880340249 3.3371910840729684 -16.95702212146358 73.5871129839565 -6.746264480527468 -0.8838164263126019 0.40839660946718526 -1.304249637844451 68.14109314298173 17.405360865889563 -0.38933217857222885 -2.1958208493074136 4.520722571521475 -0.15909726048106765 -1.5544381918524521 0.044507843614029215 -0.02975878477733748 -56.268863215638255 -0.019206856335708945 -0.016208879257010114 -56.22450890801315 -38.779229336172186 0.0011519997342103055 0.01713852671682616 0.002305836574157586 -0.021559572694268784 -0.023538441299751516 0.038470255428640396 0.008843413772685032 0.045764055796263796 -36.67893171587528 -0.014481255934442489 -0.010984191138190512 -0.01930068671224548 -0.03689346311398332 -0.03244862079236516 0.01199974082205914 0.015464748344716854 0.015472795781501994 -19.73105473425341 0.0384380392793352 0.033337465637380326 0.04879853134430483 -0.03702910017840113 0.0014173093946845531 0.012642641625146256 -0.01731434608777395 -0.04868338979440094 24.07012765534593 -0.0032679635390310685 6.493695699251467e-05 28.82514717123564 0.0326766667070228 0.02493376514874065 28.865649103360685 0.04542647234872225 -0.04110978271714344 11.979855323824843 2.8930266045588526 14.671229535730216 -61.31124610991634 1.0498887378529607 -24.960325713622854 -13.359934618161681 -6.144255827583104 -88.6507875505471 -12.388545318619494 -3.706802387528352 -1.0611092446840809 -0.4355027048547009 0.04078388482353042 -8.156255504730618 0.012848128457047973 -0.04648345182629918 44.54900225772993 0.04587027328056522 -0.04118359735001131 44.53352038909771 12.507511559346732 0.013368983843734899 0.015614286584706677 -0.0194486161148428 0.011965529748105578 -0.0021360424998377605 0.044947572209045945 0.018744178121771513 0.005160909448971796 11.083689269699805 0.04620107151448978 -0.04431732264533041 -0.03813048137743168 0.03188017690158352 -0.02459886182689614 -0.022860644509414215 -0.009532697918188643 0.0037434213735156505 4.786322213449709 -0.04731219931534889 -0.025479418994302602 0.001286534054935552 -0.02209528299972101 0.01059512138171524 0.0002763762922845502 -0.0006306613550603263 0.006220667932012111 -5.565149698977741 0.005339184458757727 -0.03808876025224161 -6.692919287876662 -0.0210820061115826 0.049452911262191354 -6.749016479116384 -0.041317591249762795 0.017573988853048058 0.006631624307056856 0.0009011066977386477 0.007532565462666663 8.000282730082679 3.454538396310418 -19.20421918413899 0.010482130527917998 10.386625356510923 -0.0024751198519548795 -5.626557959407695 -15.701326307823074 3.1848576613183766 0.03733749998902555 0.04088686183778383 0.02762019708969936 -0.03204657414644489 4.668798128156648 -0.03680474572302349 12.421373308994418 -8.23721600056972 6.9227491397806284 0.041423548683764126 46.384156013546864 -0.04649963578041237 -4.313068302712458 -14.722300504154349 -3.800530039944445 -0.003833833759249025 -0.035722853181552855 0.03421988432814214 -0.027265723946842735 -10.742491196842881 0.005942869028902712 
